<svg width="30" height="30" viewBox="0 0 30 30" fill="none" xmlns="http://www.w3.org/2000/svg">
<path d="M17.3436 29.818C24.5147 28.6929 30 22.487 30 15C30 6.71573 23.2843 0 15 0C6.71573 0 0 6.71573 0 15C0 22.487 5.48534 28.6929 12.6564 29.818V19.3369H8.84686V15H12.6564V11.6946C12.6564 7.93348 14.8966 5.85782 18.3223 5.85782C19.9634 5.85782 21.6805 6.15103 21.6805 6.15103V9.8425H19.7884C17.9236 9.8425 17.3436 11.0006 17.3436 12.186V15H21.5033L20.8388 19.3369H17.3436V29.818Z" fill="#1D1D1D"/>
<path fill-rule="evenodd" clip-rule="evenodd" d="M17.3436 29.818C17.226 29.8364 17.108 29.8535 16.9896 29.8692C17.1081 29.8537 17.226 29.8368 17.3436 29.8186V29.818ZM14.7956 29.9987C14.0689 29.989 13.3547 29.9276 12.6564 29.818V29.8186C13.3547 29.9285 14.0689 29.9891 14.7956 29.9987Z" fill="#1D1D1D"/>
</svg>
